<mxfile host="65bd71144e">
    <diagram id="jLGDsX1C9ow9nsA8Ro-Q" name="Page-1">
        <mxGraphModel dx="1631" dy="916" grid="1" gridSize="10" guides="1" tooltips="1" connect="1" arrows="1" fold="1" page="1" pageScale="1" pageWidth="850" pageHeight="1100" math="0" shadow="0">
            <root>
                <mxCell id="0"/>
                <mxCell id="1" parent="0"/>
                <mxCell id="13" style="edgeStyle=none;html=1;fontSize=15;fontColor=#f2c94c;entryX=0.5;entryY=0;entryDx=0;entryDy=0;" edge="1" parent="1" source="6" target="8">
                    <mxGeometry relative="1" as="geometry">
                        <mxPoint x="425.5" y="340" as="targetPoint"/>
                        <Array as="points">
                            <mxPoint x="426" y="330"/>
                            <mxPoint x="160" y="330"/>
                        </Array>
                    </mxGeometry>
                </mxCell>
                <mxCell id="14" style="edgeStyle=none;html=1;entryX=0.5;entryY=0;entryDx=0;entryDy=0;fontSize=15;fontColor=#f2c94c;exitX=0.5;exitY=1;exitDx=0;exitDy=0;" edge="1" parent="1" source="6" target="7">
                    <mxGeometry relative="1" as="geometry">
                        <mxPoint x="430" y="160" as="sourcePoint"/>
                        <Array as="points">
                            <mxPoint x="426" y="180"/>
                            <mxPoint x="160" y="180"/>
                        </Array>
                    </mxGeometry>
                </mxCell>
                <mxCell id="15" style="edgeStyle=none;html=1;entryX=0.5;entryY=0;entryDx=0;entryDy=0;fontSize=15;fontColor=#f2c94c;exitX=0.5;exitY=1;exitDx=0;exitDy=0;" edge="1" parent="1" source="6" target="10">
                    <mxGeometry relative="1" as="geometry">
                        <Array as="points">
                            <mxPoint x="426" y="180"/>
                            <mxPoint x="680" y="180"/>
                        </Array>
                    </mxGeometry>
                </mxCell>
                <mxCell id="6" value="&lt;font style=&quot;font-size: 15px;&quot;&gt;&lt;font style=&quot;font-size: 15px;&quot; color=&quot;#7467c4&quot;&gt;&lt;b&gt;User&lt;/b&gt;&lt;/font&gt;&lt;br&gt;&lt;/font&gt;&lt;br&gt;Main Actor Initializing Interactions" style="rounded=1;whiteSpace=wrap;html=1;strokeColor=#7467c4;" vertex="1" parent="1">
                    <mxGeometry x="323" y="100" width="205" height="60" as="geometry"/>
                </mxCell>
                <mxCell id="17" style="edgeStyle=none;html=1;entryX=0;entryY=0.5;entryDx=0;entryDy=0;fontSize=15;fontColor=#f2c94c;" edge="1" parent="1" source="7" target="11">
                    <mxGeometry relative="1" as="geometry">
                        <Array as="points">
                            <mxPoint x="390" y="245"/>
                            <mxPoint x="390" y="415"/>
                        </Array>
                    </mxGeometry>
                </mxCell>
                <mxCell id="7" value="&lt;font style=&quot;font-size: 15px;&quot;&gt;&lt;b&gt;&lt;font style=&quot;font-size: 15px;&quot; color=&quot;#6fcf97&quot;&gt;Select Stock Tickers&lt;/font&gt;&lt;br&gt;&lt;/b&gt;&lt;/font&gt;&lt;br&gt;&lt;font color=&quot;#ffffff&quot;&gt;User Chooses Stocks for Analysis&lt;/font&gt;" style="ellipse;whiteSpace=wrap;html=1;strokeColor=#6fcf97;fontColor=#7467c4;" vertex="1" parent="1">
                    <mxGeometry x="40" y="200" width="240" height="90" as="geometry"/>
                </mxCell>
                <mxCell id="16" style="edgeStyle=none;html=1;fontSize=15;fontColor=#f2c94c;" edge="1" parent="1" source="8" target="11">
                    <mxGeometry relative="1" as="geometry"/>
                </mxCell>
                <mxCell id="20" style="edgeStyle=none;html=1;entryX=0.5;entryY=0;entryDx=0;entryDy=0;fontSize=15;fontColor=#f2c94c;" edge="1" parent="1" source="8" target="9">
                    <mxGeometry relative="1" as="geometry"/>
                </mxCell>
                <mxCell id="8" value="&lt;b&gt;&lt;font style=&quot;font-size: 15px;&quot; color=&quot;#6fcf97&quot;&gt;Choose Data Range&lt;/font&gt;&lt;br&gt;&lt;/b&gt;&lt;br&gt;&lt;font color=&quot;#ffffff&quot;&gt;User Specifies the data range&lt;/font&gt;" style="ellipse;whiteSpace=wrap;html=1;strokeColor=#6fcf97;fontColor=#7467c4;" vertex="1" parent="1">
                    <mxGeometry x="40" y="370" width="240" height="90" as="geometry"/>
                </mxCell>
                <mxCell id="21" style="edgeStyle=none;html=1;fontSize=15;fontColor=#f2c94c;" edge="1" parent="1" source="9" target="12">
                    <mxGeometry relative="1" as="geometry"/>
                </mxCell>
                <mxCell id="9" value="&lt;font color=&quot;#6fcf97&quot;&gt;&lt;b&gt;&lt;font style=&quot;font-size: 15px;&quot;&gt;Plot Data&lt;/font&gt;&lt;br&gt;&lt;/b&gt;&lt;/font&gt;&lt;br&gt;&lt;font color=&quot;#ffffff&quot;&gt;Displays the Stock Analysis Charts&lt;/font&gt;" style="ellipse;whiteSpace=wrap;html=1;strokeColor=#6fcf97;fontColor=#7467c4;" vertex="1" parent="1">
                    <mxGeometry x="40" y="540" width="240" height="90" as="geometry"/>
                </mxCell>
                <mxCell id="10" value="&lt;b&gt;&lt;font style=&quot;font-size: 15px;&quot; color=&quot;#f2c94c&quot;&gt;Select Indicators&lt;/font&gt;&lt;br&gt;&lt;/b&gt;&lt;br&gt;&lt;font color=&quot;#ffffff&quot;&gt;User Selects Technical Indicators&lt;/font&gt;" style="ellipse;whiteSpace=wrap;html=1;strokeColor=#f2c94c;fontColor=#7467c4;" vertex="1" parent="1">
                    <mxGeometry x="560" y="200" width="240" height="90" as="geometry"/>
                </mxCell>
                <mxCell id="18" style="edgeStyle=none;html=1;entryX=0.5;entryY=0;entryDx=0;entryDy=0;fontSize=15;fontColor=#f2c94c;" edge="1" parent="1" source="11" target="9">
                    <mxGeometry relative="1" as="geometry">
                        <Array as="points">
                            <mxPoint x="680" y="500"/>
                            <mxPoint x="160" y="500"/>
                        </Array>
                    </mxGeometry>
                </mxCell>
                <mxCell id="11" value="&lt;font color=&quot;#f2c94c&quot;&gt;&lt;span style=&quot;font-size: 15px;&quot;&gt;Yahoo Finance API&lt;br&gt;&lt;/span&gt;&lt;/font&gt;&lt;br&gt;&lt;font color=&quot;#ffffff&quot;&gt;External Data Provider for Stock Data&lt;/font&gt;" style="ellipse;whiteSpace=wrap;html=1;strokeColor=#f2c94c;fontColor=#7467c4;" vertex="1" parent="1">
                    <mxGeometry x="560" y="370" width="240" height="90" as="geometry"/>
                </mxCell>
                <mxCell id="12" value="&lt;b&gt;&lt;font style=&quot;font-size: 15px;&quot; color=&quot;#f2c94c&quot;&gt;Data Validation&lt;/font&gt;&lt;br&gt;&lt;/b&gt;&lt;br&gt;&lt;font color=&quot;#ffffff&quot;&gt;Checks User Input for Correctness&lt;/font&gt;" style="ellipse;whiteSpace=wrap;html=1;strokeColor=#f2c94c;fontColor=#7467c4;" vertex="1" parent="1">
                    <mxGeometry x="560" y="540" width="240" height="90" as="geometry"/>
                </mxCell>
            </root>
        </mxGraphModel>
    </diagram>
</mxfile>